<?xml version="1.0" encoding="utf-8"?><svg viewBox="0 0 512 512" xmlns="http://www.w3.org/2000/svg" xmlns:xlink="http://www.w3.org/1999/xlink"><style>:root>svg{display:none}:root>svg:target{display:block}</style><svg viewBox="0 0 469 469" id="area" xmlns="http://www.w3.org/2000/svg"><g fill="currentColor"><path d="M455.5 0h-442C6 0 0 6 0 13.5v211.9c0 7.5 6 13.5 13.5 13.5s13.5-6 13.5-13.5V27h415v415H242.4c-7.5 0-13.5 6-13.5 13.5s6 13.5 13.5 13.5h213.1c7.5 0 13.5-6 13.5-13.5v-442C469 6 463 0 455.5 0z"/><path d="M175.6 279.9H13.5c-7.5 0-13.5 6-13.5 13.5v162.1C0 463 6 469 13.5 469h162.1c7.5 0 13.5-6 13.5-13.5V293.4c0-7.4-6.1-13.5-13.5-13.5zM162.1 442H27V306.9h135.1V442zm198.3-314.3v71.5c0 7.5 6 13.5 13.5 13.5s13.5-6 13.5-13.5V95.1c0-7.5-6-13.5-13.5-13.5H269.8c-7.5 0-13.5 6-13.5 13.5s6 13.5 13.5 13.5h71.5L212.5 237.4c-5.3 5.3-5.3 13.8 0 19.1 2.6 2.6 6.1 4 9.5 4s6.9-1.3 9.5-4l128.9-128.8z"/></g></svg><svg viewBox="0 0 512 512" id="area-2" xmlns="http://www.w3.org/2000/svg"><path d="M128 32V0H16C7.163 0 0 7.163 0 16v112h32V54.56L180.64 203.2l22.56-22.56L54.56 32H128zM496 0H384v32h73.44L308.8 180.64l22.56 22.56L480 54.56V128h32V16c0-8.837-7.163-16-16-16zm-16 457.44L331.36 308.8l-22.56 22.56L457.44 480H384v32h112c8.837 0 16-7.163 16-16V384h-32v73.44zm-299.36-148.8L32 457.44V384H0v112c0 8.837 7.163 16 16 16h112v-32H54.56L203.2 331.36l-22.56-22.72z" fill="currentColor"/></svg><svg viewBox="0 0 32 32" id="at" xmlns="http://www.w3.org/2000/svg"><path fill="currentColor" d="M16.188 4C8.823 3.89 2.914 10.484 4.155 18.031 5 23.152 9.203 27.18 14.344 27.875c3.465.469 6.703-.531 9.156-2.5l-1.25-1.563c-2.047 1.641-4.738 2.489-7.656 2.094-4.254-.574-7.742-3.953-8.438-8.187C5.11 11.348 9.992 5.91 16.156 6c5.254.078 9.684 4.434 9.844 9.687.004.114 0 .223 0 .344A3.984 3.984 0 0122 20c-1.117 0-2-.883-2-2v-8h-2v.781A4.431 4.431 0 0015.5 10a4.516 4.516 0 00-4.5 4.5v3c0 2.473 2.027 4.5 4.5 4.5 1.348 0 2.547-.613 3.375-1.563C19.609 21.372 20.73 22 22 22c3.285 0 5.988-2.68 6-5.969 0-.133.004-.262 0-.406C27.809 9.289 22.523 4.094 16.187 4zm-.688 8c1.39 0 2.5 1.11 2.5 2.5v3c0 1.39-1.11 2.5-2.5 2.5S13 18.89 13 17.5v-3c0-1.39 1.11-2.5 2.5-2.5z"/></svg><svg viewBox="0 0 512 512" id="calculator" xmlns="http://www.w3.org/2000/svg"><path d="M460.8 0H51.2C38.4 0 25.6 10.24 25.6 25.6v460.8c0 15.36 10.24 25.6 25.6 25.6h409.6c15.36 0 25.6-10.24 25.6-25.6V25.6c0-15.36-12.8-25.6-25.6-25.6zM128 460.8H76.8v-51.2H128v51.2zm0-102.4H76.8v-51.2H128v51.2zm0-102.4H76.8v-51.2H128V256zm102.4 204.8h-51.2v-51.2h51.2v51.2zm0-102.4h-51.2v-51.2h51.2v51.2zm0-102.4h-51.2v-51.2h51.2V256zm102.4 204.8h-51.2v-51.2h51.2v51.2zm0-102.4h-51.2v-51.2h51.2v51.2zm0-102.4h-51.2v-51.2h51.2V256zm102.4 204.8H384V307.2h51.2v153.6zm0-204.8H384v-51.2h51.2V256zm0-102.4H76.8V51.2h358.4v102.4z" fill="currentColor"/></svg><svg fill="none" viewBox="0 0 10 6" id="chevron" xmlns="http://www.w3.org/2000/svg"><path d="M1 1l4 4 4-4" stroke="currentColor"/></svg><svg viewBox="0 0 490.91 490" id="compare" xmlns="http://www.w3.org/2000/svg"><path d="M7.29 283.07l55.995-119.937-24.172 6.933c-5.308 1.524-10.847-1.543-12.367-6.855a9.995 9.995 0 016.852-12.367l168.07-48.23a44.168 44.168 0 01-.055-2.16c-.004-19.958 13.469-37.4 32.782-42.427 19.312-5.03 39.582 3.621 49.312 21.043l168.086-48.226c5.309-1.524 10.848 1.547 12.371 6.855 1.52 5.309-1.547 10.844-6.855 12.367l-33.172 9.52 60.074 128.672a10.004 10.004 0 016.7 9.433c.01 32.465-19.556 61.73-49.56 74.125-30.003 12.399-64.523 5.477-87.43-17.527A79.244 79.244 0 01330 197.691a10 10 0 017.29-9.62L393.12 68.487 289.238 98.293c.035.719.055 1.437.055 2.164-.031 20.348-14.035 38.008-33.84 42.672V341.21h27.602c22.054 0 40.398 17.7 40.398 39.758v5.804c18.559 3.907 31.883 20.227 32 39.196v14a10.558 10.558 0 01-10.398 10.242H145.852a10.558 10.558 0 01-10.399-10.242v-14c.117-18.969 13.442-35.29 32-39.196v-5.804c0-22.059 18.348-39.758 40.399-39.758h27.601V143.129a44 44 0 01-28.254-21.297l-113.187 32.48 60.199 128.946a10 10 0 016.703 9.43c.008 32.464-19.559 61.73-49.562 74.125-30.004 12.398-64.52 5.48-87.426-17.524A79.263 79.263 0 010 292.688a10 10 0 017.29-9.618zM410.706 77.613l-51.168 109.598h102.332zm0 179.797c29.453.172 54.645-21.125 59.371-50.2h-119.2c5.09 29.052 30.333 50.235 59.829 50.2zM155.453 425.97v4.242h180v-4.242c0-11.028-9.375-19.758-20.398-19.758H175.852c-11.024 0-20.399 8.73-20.399 19.758zm32-45v5.242h116v-5.242c0-11.028-9.375-19.758-20.398-19.758h-75.203c-11.024 0-20.399 8.73-20.399 19.758zm58-256.676a23.853 23.853 0 0022.555-16.035A23.853 23.853 0 00232.59 80.36a23.852 23.852 0 00-10.309 25.68c.254.632.442 1.284.563 1.952a23.872 23.872 0 0022.61 16.301zM29.54 282.211h102.332L80.707 172.613zm51.168 70.2c29.453.171 54.645-21.126 59.371-50.2h-119.2c5.09 29.05 30.333 50.234 59.829 50.2zm0 0" fill="currentColor"/></svg><svg viewBox="0 0 100 100" id="favorite" xmlns="http://www.w3.org/2000/svg"><path d="M86.21 53.09c-.06.06-.11.14-.15.21L50 89.36 13.95 53.31c-.04-.08-.1-.15-.16-.22-9.77-9.79-9.76-25.71.02-35.48 9.78-9.78 25.69-9.79 35.48-.03.39.39 1.03.39 1.42 0 9.79-9.76 25.7-9.75 35.48.03 9.78 9.77 9.79 25.69.02 35.48z" fill="currentColor"/></svg><svg viewBox="0 0 36 36" id="location" xmlns="http://www.w3.org/2000/svg"><g fill="currentColor"><path d="M18 35a1 1 0 00.74-.33C19.25 34.11 31 20.93 31 14c0-7.17-5.83-13-13-13S5 6.83 5 14c0 6.93 11.75 20.11 12.26 20.67A1 1 0 0018 35zm0-32c6.07 0 11 4.93 11 11 0 4.77-7.35 14.26-11 18.49C14.35 28.26 7 18.77 7 14 7 7.93 11.93 3 18 3z"/><path d="M23.5 14c0-3.03-2.47-5.5-5.5-5.5s-5.5 2.47-5.5 5.5 2.47 5.5 5.5 5.5 5.5-2.47 5.5-5.5zm-9 0c0-1.93 1.57-3.5 3.5-3.5s3.5 1.57 3.5 3.5-1.57 3.5-3.5 3.5-3.5-1.57-3.5-3.5z"/></g></svg><svg viewBox="0 0 503 503.125" id="pencil" xmlns="http://www.w3.org/2000/svg"><g fill="currentColor"><path d="M16.05 503.125a15.93 15.93 0 01-11.304-4.691 15.959 15.959 0 01-4.203-15.168L30.578 362.71a16.026 16.026 0 014.203-7.445L372.895 17.152c22.867-22.87 60.093-22.87 82.964 0l30.164 30.164c22.872 22.872 22.872 60.098 0 82.965L147.914 468.395a15.896 15.896 0 01-7.445 4.203L19.914 502.633a14.784 14.784 0 01-3.863.492zm44.481-128.383l-22.527 90.41 90.41-22.527L463.41 107.648c10.39-10.39 10.39-27.328 0-37.718l-30.164-30.164c-10.41-10.41-27.351-10.391-37.719 0zm76.074 82.348h.215zm0 0"/><path d="M422.688 187.008c-4.098 0-8.196-1.559-11.31-4.692L320.864 91.82c-6.254-6.254-6.254-16.386 0-22.636 6.25-6.25 16.383-6.25 22.633 0l90.52 90.52c6.25 6.25 6.25 16.382 0 22.632-3.16 3.113-7.254 4.672-11.329 4.672zM136.605 473.09c-4.097 0-8.19-1.559-11.304-4.695l-90.52-90.516c-6.25-6.254-6.25-16.387 0-22.637s16.383-6.25 22.637 0l90.516 90.52c6.25 6.25 6.25 16.383 0 22.633a15.956 15.956 0 01-11.329 4.695zm0 0"/></g></svg><svg viewBox="0 0 512 512" id="phone" xmlns="http://www.w3.org/2000/svg"><path fill-rule="evenodd" d="M502.638 450.357c-3.4 3.389-7.5 7.723-11.847 12.307-10.848 11.513-24.4 25.825-32.894 31.629-44.69 30.538-104.478 15.926-146.769-1.695-55.789-23.245-116.528-66.091-171.065-120.635C85.475 317.415 42.633 256.657 19.388 200.9c-17.6-42.3-32.243-102.1-1.7-146.8 5.8-8.5 20.145-22.031 31.643-32.9 4.6-4.334 8.9-8.429 12.3-11.818a32.212 32.212 0 0145.441 0L189.3 91.586a32.213 32.213 0 010 45.431l-22.4 22.355a48.935 48.935 0 00-8.649 57.858 328.506 328.506 0 00136.53 136.507 48.905 48.905 0 0057.838-8.663l22.345-22.356a32.212 32.212 0 0145.441 0l82.233 82.218a32.2 32.2 0 010 45.421z" fill="currentColor"/></svg><svg viewBox="0 0 440.503 440.503" id="phone-2" xmlns="http://www.w3.org/2000/svg"><path d="M423.982 325.226l-101.76-62.293a35.412 35.412 0 00-39.68 2.347 111.136 111.136 0 00-14.08 14.507c-17.707-14.72-37.547-31.787-56.96-51.2-19.413-19.413-36.267-39.253-51.2-56.96a113.933 113.933 0 0015.147-14.933 34.775 34.775 0 002.347-37.973L115.929 16.533A33.068 33.068 0 0080.729.746a87.466 87.466 0 00-32.853 11.947A99.415 99.415 0 00.302 93.76c-4.693 52.693 45.653 141.653 125.227 221.227 76.373 75.947 161.28 125.44 213.973 125.44h6.827a99.627 99.627 0 0081.707-47.573 90.24 90.24 0 0011.733-31.787 33.495 33.495 0 00-15.787-35.841zm-5.76 31.36a70.408 70.408 0 01-9.173 24.96 78.719 78.719 0 01-64 37.333c-46.293 4.053-130.133-45.013-204.16-119.04S17.796 141.76 21.849 95.04a78.294 78.294 0 0137.333-64 66.777 66.777 0 0125.6-9.173h2.56a12.16 12.16 0 0110.453 6.4l61.227 101.547a13.44 13.44 0 010 14.507 89.179 89.179 0 01-19.627 17.28c-4.893 3.281-6.199 9.908-2.917 14.8.179.266.369.524.571.773 16.64 21.333 36.48 44.16 59.733 67.2s46.933 42.667 67.2 59.733c4.577 3.708 11.294 3.004 15.003-1.573.202-.249.392-.507.571-.773a90.903 90.903 0 0116.427-18.987 13.867 13.867 0 0115.573 0l100.907 60.16a12.37 12.37 0 015.759 13.652z" fill="currentColor"/></svg><svg viewBox="0 0 469.329 469.329" id="triangle" xmlns="http://www.w3.org/2000/svg"><g fill="currentColor"><path d="M466.208 451.119l-448-448C15.166.067 10.562-.829 6.583.806A10.673 10.673 0 000 10.661v448a10.66 10.66 0 0010.667 10.667h448c4.313 0 8.208-2.594 9.854-6.583a10.693 10.693 0 00-2.313-11.626zm-60.875-3.125v-10.667a10.66 10.66 0 00-10.667-10.667 10.66 10.66 0 00-10.667 10.667v10.667h-42.667v-21.333a10.66 10.66 0 00-10.667-10.667 10.66 10.66 0 00-10.667 10.667v21.333h-42.667v-10.667a10.66 10.66 0 00-10.667-10.667 10.66 10.66 0 00-10.667 10.667v10.667H213.33v-21.333a10.66 10.66 0 00-10.667-10.667 10.66 10.66 0 00-10.667 10.667v21.333h-42.667v-10.667a10.66 10.66 0 00-10.667-10.667 10.66 10.66 0 00-10.667 10.667v10.667H85.333v-21.333a10.66 10.66 0 00-10.667-10.667 10.66 10.66 0 00-10.667 10.667v21.333H21.333V36.411l411.583 411.583h-27.583z"/><path d="M96 383.994h156.646c4.312 0 8.208-2.594 9.854-6.583a10.692 10.692 0 00-2.313-11.625L103.542 209.13a10.701 10.701 0 00-11.625-2.313 10.672 10.672 0 00-6.583 9.854v156.656A10.66 10.66 0 0096 383.994zm10.667-141.573l120.229 120.24H106.667v-120.24z"/></g></svg></svg>