<?xml version="1.0" encoding="utf-8"?><svg viewBox="0 0 512 512" xmlns="http://www.w3.org/2000/svg" xmlns:xlink="http://www.w3.org/1999/xlink"><style>:root>svg{display:none}:root>svg:target{display:block}</style><svg viewBox="0 0 469 469" id="area" xmlns="http://www.w3.org/2000/svg"><g fill="currentColor"><path d="M455.5 0h-442C6 0 0 6 0 13.5v211.9c0 7.5 6 13.5 13.5 13.5s13.5-6 13.5-13.5V27h415v415H242.4c-7.5 0-13.5 6-13.5 13.5s6 13.5 13.5 13.5h213.1c7.5 0 13.5-6 13.5-13.5v-442C469 6 463 0 455.5 0z"/><path d="M175.6 279.9H13.5c-7.5 0-13.5 6-13.5 13.5v162.1C0 463 6 469 13.5 469h162.1c7.5 0 13.5-6 13.5-13.5V293.4c0-7.4-6.1-13.5-13.5-13.5zM162.1 442H27V306.9h135.1V442zm198.3-314.3v71.5c0 7.5 6 13.5 13.5 13.5s13.5-6 13.5-13.5V95.1c0-7.5-6-13.5-13.5-13.5H269.8c-7.5 0-13.5 6-13.5 13.5s6 13.5 13.5 13.5h71.5L212.5 237.4c-5.3 5.3-5.3 13.8 0 19.1 2.6 2.6 6.1 4 9.5 4s6.9-1.3 9.5-4l128.9-128.8z"/></g></svg><svg fill="none" viewBox="0 0 10 6" id="chevron" xmlns="http://www.w3.org/2000/svg"><path d="M1 1l4 4 4-4" stroke="currentColor"/></svg><svg viewBox="0 0 490.91 490" id="compare" xmlns="http://www.w3.org/2000/svg"><path d="M7.29 283.07l55.995-119.937-24.172 6.933c-5.308 1.524-10.847-1.543-12.367-6.855a9.995 9.995 0 016.852-12.367l168.07-48.23a44.168 44.168 0 01-.055-2.16c-.004-19.958 13.469-37.4 32.782-42.427 19.312-5.03 39.582 3.621 49.312 21.043l168.086-48.226c5.309-1.524 10.848 1.547 12.371 6.855 1.52 5.309-1.547 10.844-6.855 12.367l-33.172 9.52 60.074 128.672a10.004 10.004 0 016.7 9.433c.01 32.465-19.556 61.73-49.56 74.125-30.003 12.399-64.523 5.477-87.43-17.527A79.244 79.244 0 01330 197.691a10 10 0 017.29-9.62L393.12 68.487 289.238 98.293c.035.719.055 1.437.055 2.164-.031 20.348-14.035 38.008-33.84 42.672V341.21h27.602c22.054 0 40.398 17.7 40.398 39.758v5.804c18.559 3.907 31.883 20.227 32 39.196v14a10.558 10.558 0 01-10.398 10.242H145.852a10.558 10.558 0 01-10.399-10.242v-14c.117-18.969 13.442-35.29 32-39.196v-5.804c0-22.059 18.348-39.758 40.399-39.758h27.601V143.129a44 44 0 01-28.254-21.297l-113.187 32.48 60.199 128.946a10 10 0 016.703 9.43c.008 32.464-19.559 61.73-49.562 74.125-30.004 12.398-64.52 5.48-87.426-17.524A79.263 79.263 0 010 292.688a10 10 0 017.29-9.618zM410.706 77.613l-51.168 109.598h102.332zm0 179.797c29.453.172 54.645-21.125 59.371-50.2h-119.2c5.09 29.052 30.333 50.235 59.829 50.2zM155.453 425.97v4.242h180v-4.242c0-11.028-9.375-19.758-20.398-19.758H175.852c-11.024 0-20.399 8.73-20.399 19.758zm32-45v5.242h116v-5.242c0-11.028-9.375-19.758-20.398-19.758h-75.203c-11.024 0-20.399 8.73-20.399 19.758zm58-256.676a23.853 23.853 0 0022.555-16.035A23.853 23.853 0 00232.59 80.36a23.852 23.852 0 00-10.309 25.68c.254.632.442 1.284.563 1.952a23.872 23.872 0 0022.61 16.301zM29.54 282.211h102.332L80.707 172.613zm51.168 70.2c29.453.171 54.645-21.126 59.371-50.2h-119.2c5.09 29.05 30.333 50.234 59.829 50.2zm0 0" fill="currentColor"/></svg><svg viewBox="0 0 100 100" id="favorite" xmlns="http://www.w3.org/2000/svg"><path d="M86.21 53.09c-.06.06-.11.14-.15.21L50 89.36 13.95 53.31c-.04-.08-.1-.15-.16-.22-9.77-9.79-9.76-25.71.02-35.48 9.78-9.78 25.69-9.79 35.48-.03.39.39 1.03.39 1.42 0 9.79-9.76 25.7-9.75 35.48.03 9.78 9.77 9.79 25.69.02 35.48z" fill="currentColor"/></svg><svg viewBox="0 0 512 512" id="phone" xmlns="http://www.w3.org/2000/svg"><path fill-rule="evenodd" d="M502.638 450.357c-3.4 3.389-7.5 7.723-11.847 12.307-10.848 11.513-24.4 25.825-32.894 31.629-44.69 30.538-104.478 15.926-146.769-1.695-55.789-23.245-116.528-66.091-171.065-120.635C85.475 317.415 42.633 256.657 19.388 200.9c-17.6-42.3-32.243-102.1-1.7-146.8 5.8-8.5 20.145-22.031 31.643-32.9 4.6-4.334 8.9-8.429 12.3-11.818a32.212 32.212 0 0145.441 0L189.3 91.586a32.213 32.213 0 010 45.431l-22.4 22.355a48.935 48.935 0 00-8.649 57.858 328.506 328.506 0 00136.53 136.507 48.905 48.905 0 0057.838-8.663l22.345-22.356a32.212 32.212 0 0145.441 0l82.233 82.218a32.2 32.2 0 010 45.421z" fill="currentColor"/></svg><svg viewBox="0 0 469.329 469.329" id="triangle" xmlns="http://www.w3.org/2000/svg"><g fill="currentColor"><path d="M466.208 451.119l-448-448C15.166.067 10.562-.829 6.583.806A10.673 10.673 0 000 10.661v448a10.66 10.66 0 0010.667 10.667h448c4.313 0 8.208-2.594 9.854-6.583a10.693 10.693 0 00-2.313-11.626zm-60.875-3.125v-10.667a10.66 10.66 0 00-10.667-10.667 10.66 10.66 0 00-10.667 10.667v10.667h-42.667v-21.333a10.66 10.66 0 00-10.667-10.667 10.66 10.66 0 00-10.667 10.667v21.333h-42.667v-10.667a10.66 10.66 0 00-10.667-10.667 10.66 10.66 0 00-10.667 10.667v10.667H213.33v-21.333a10.66 10.66 0 00-10.667-10.667 10.66 10.66 0 00-10.667 10.667v21.333h-42.667v-10.667a10.66 10.66 0 00-10.667-10.667 10.66 10.66 0 00-10.667 10.667v10.667H85.333v-21.333a10.66 10.66 0 00-10.667-10.667 10.66 10.66 0 00-10.667 10.667v21.333H21.333V36.411l411.583 411.583h-27.583z"/><path d="M96 383.994h156.646c4.312 0 8.208-2.594 9.854-6.583a10.692 10.692 0 00-2.313-11.625L103.542 209.13a10.701 10.701 0 00-11.625-2.313 10.672 10.672 0 00-6.583 9.854v156.656A10.66 10.66 0 0096 383.994zm10.667-141.573l120.229 120.24H106.667v-120.24z"/></g></svg></svg>