<?xml version="1.0" encoding="utf-8"?><svg viewBox="0 0 512 512" xmlns="http://www.w3.org/2000/svg" xmlns:xlink="http://www.w3.org/1999/xlink"><style>:root>svg{display:none}:root>svg:target{display:block}</style><svg viewBox="0 0 469 469" id="area" xmlns="http://www.w3.org/2000/svg"><g fill="currentColor"><path d="M455.5 0h-442C6 0 0 6 0 13.5v211.9c0 7.5 6 13.5 13.5 13.5s13.5-6 13.5-13.5V27h415v415H242.4c-7.5 0-13.5 6-13.5 13.5s6 13.5 13.5 13.5h213.1c7.5 0 13.5-6 13.5-13.5v-442C469 6 463 0 455.5 0z"/><path d="M175.6 279.9H13.5c-7.5 0-13.5 6-13.5 13.5v162.1C0 463 6 469 13.5 469h162.1c7.5 0 13.5-6 13.5-13.5V293.4c0-7.4-6.1-13.5-13.5-13.5zM162.1 442H27V306.9h135.1V442zm198.3-314.3v71.5c0 7.5 6 13.5 13.5 13.5s13.5-6 13.5-13.5V95.1c0-7.5-6-13.5-13.5-13.5H269.8c-7.5 0-13.5 6-13.5 13.5s6 13.5 13.5 13.5h71.5L212.5 237.4c-5.3 5.3-5.3 13.8 0 19.1 2.6 2.6 6.1 4 9.5 4s6.9-1.3 9.5-4l128.9-128.8z"/></g></svg><svg viewBox="0 0 512 512" id="area-2" xmlns="http://www.w3.org/2000/svg"><path d="M128 32V0H16C7.163 0 0 7.163 0 16v112h32V54.56L180.64 203.2l22.56-22.56L54.56 32H128zM496 0H384v32h73.44L308.8 180.64l22.56 22.56L480 54.56V128h32V16c0-8.837-7.163-16-16-16zm-16 457.44L331.36 308.8l-22.56 22.56L457.44 480H384v32h112c8.837 0 16-7.163 16-16V384h-32v73.44zm-299.36-148.8L32 457.44V384H0v112c0 8.837 7.163 16 16 16h112v-32H54.56L203.2 331.36l-22.56-22.72z" fill="currentColor"/></svg><svg viewBox="0 0 32 32" id="at" xmlns="http://www.w3.org/2000/svg"><path fill="currentColor" d="M16.188 4C8.823 3.89 2.914 10.484 4.155 18.031 5 23.152 9.203 27.18 14.344 27.875c3.465.469 6.703-.531 9.156-2.5l-1.25-1.563c-2.047 1.641-4.738 2.489-7.656 2.094-4.254-.574-7.742-3.953-8.438-8.187C5.11 11.348 9.992 5.91 16.156 6c5.254.078 9.684 4.434 9.844 9.687.004.114 0 .223 0 .344A3.984 3.984 0 0122 20c-1.117 0-2-.883-2-2v-8h-2v.781A4.431 4.431 0 0015.5 10a4.516 4.516 0 00-4.5 4.5v3c0 2.473 2.027 4.5 4.5 4.5 1.348 0 2.547-.613 3.375-1.563C19.609 21.372 20.73 22 22 22c3.285 0 5.988-2.68 6-5.969 0-.133.004-.262 0-.406C27.809 9.289 22.523 4.094 16.187 4zm-.688 8c1.39 0 2.5 1.11 2.5 2.5v3c0 1.39-1.11 2.5-2.5 2.5S13 18.89 13 17.5v-3c0-1.39 1.11-2.5 2.5-2.5z"/></svg><svg viewBox="0 0 512 512" id="bed" xmlns="http://www.w3.org/2000/svg"><path d="M511.168 344.981c.789-2.112 1.067-4.437.341-6.784L469.333 201.13V74.667c0-29.397-23.915-53.333-53.333-53.333H96c-29.419 0-53.333 23.936-53.333 53.333v126.464L.491 338.197c-.725 2.325-.448 4.651.341 6.784C.32 347.243 0 349.568 0 352v128c0 5.888 4.779 10.667 10.667 10.667h42.667C59.221 490.667 64 485.888 64 480v-32h384v32c0 5.888 4.779 10.667 10.667 10.667h42.667c5.888 0 10.667-4.779 10.667-10.667V352c-.001-2.432-.321-4.757-.833-7.019zM64 74.667c0-17.643 14.357-32 32-32h320c17.643 0 32 14.357 32 32V192h-28.992l-9.941-39.765A31.994 31.994 0 00378.005 128h-68.672c-17.643 0-32 14.357-32 32v32h-42.667v-31.979c0-17.643-14.357-32-32-32h-68.672c-14.699 0-27.477 9.984-31.061 24.235L92.992 192H64V74.667zm333.099 134.57a10.663 10.663 0 01-8.427 4.096h-79.339c-5.867 0-10.667-4.779-10.667-10.667V160c0-5.888 4.8-10.667 10.667-10.667h68.693c4.907 0 9.152 3.307 10.347 8.064l10.667 42.667a10.58 10.58 0 01-1.941 9.173zM213.355 160v42.56c0 .043-.021.064-.021.107v.043c-.021 5.867-4.8 10.624-10.645 10.624H123.35a10.633 10.633 0 01-8.427-4.096 10.595 10.595 0 01-1.941-9.173l10.667-42.667a10.667 10.667 0 0110.368-8.064h68.672c5.866-.001 10.666 4.778 10.666 10.666zm-152.15 53.333h32.107c1.131 3.2 2.603 6.272 4.757 9.045 6.144 7.808 15.339 12.288 25.259 12.288h79.339c13.888 0 25.621-8.96 30.037-21.333h46.592c4.416 12.395 16.149 21.333 30.037 21.333h79.339c9.92 0 19.093-4.48 25.237-12.288 2.155-2.752 3.627-5.845 4.757-9.045h32.128l32.939 107.051c-1.237-.149-2.453-.384-3.733-.384H32c-1.28 0-2.496.235-3.712.384l32.917-107.051zm-18.538 256H21.333V448h21.333v21.333zm448 0h-21.333V448h21.333v21.333zm0-42.666H21.333V352c0-5.888 4.8-10.667 10.667-10.667h448c5.867 0 10.667 4.779 10.667 10.667v74.667z" fill="currentColor"/></svg><svg viewBox="0 0 24 24" id="calc" xmlns="http://www.w3.org/2000/svg"><path d="M19.5 24h-15A2.503 2.503 0 012 21.5v-19C2 1.122 3.122 0 4.5 0h15C20.878 0 22 1.122 22 2.5v19c0 1.378-1.122 2.5-2.5 2.5zM4.5 1C3.673 1 3 1.673 3 2.5v19c0 .827.673 1.5 1.5 1.5h15c.827 0 1.5-.673 1.5-1.5v-19c0-.827-.673-1.5-1.5-1.5z"/><path d="M17.5 8h-11C5.673 8 5 7.327 5 6.5v-2C5 3.673 5.673 3 6.5 3h11c.827 0 1.5.673 1.5 1.5v2c0 .827-.673 1.5-1.5 1.5zm-11-4a.5.5 0 00-.5.5v2a.5.5 0 00.5.5h11a.5.5 0 00.5-.5v-2a.5.5 0 00-.5-.5zM8 14a.5.5 0 01-.5-.5v-3a.5.5 0 011 0v3a.5.5 0 01-.5.5z"/><path d="M9.5 12.5h-3a.5.5 0 010-1h3a.5.5 0 010 1zM17.5 12.5h-3a.5.5 0 010-1h3a.5.5 0 010 1zM17.5 17h-3a.5.5 0 010-1h3a.5.5 0 010 1zM17.5 20h-3a.5.5 0 010-1h3a.5.5 0 010 1zM6.5 20a.5.5 0 01-.354-.853l3-3a.5.5 0 01.707.707l-3 3A.498.498 0 016.5 20z"/><path d="M9.5 20a.502.502 0 01-.354-.146l-3-3a.5.5 0 01.707-.707l3 3A.5.5 0 019.5 20z"/></svg><svg viewBox="0 0 128 128" id="calc-2" xmlns="http://www.w3.org/2000/svg"><g fill="currentColor"><path d="M106.5 0h-85a7.759 7.759 0 00-7.75 7.75v112.5A7.759 7.759 0 0021.5 128h85a7.759 7.759 0 007.75-7.75V7.748A7.759 7.759 0 00106.5 0zm4.25 120.248a4.254 4.254 0 01-4.25 4.25h-85a4.254 4.254 0 01-4.25-4.25V7.748A4.254 4.254 0 0121.5 3.5h85a4.254 4.254 0 014.25 4.25z"/><path d="M102.5 10h-77a1.749 1.749 0 00-1.75 1.75v22a1.749 1.749 0 001.75 1.75h77a1.749 1.749 0 001.75-1.75v-22A1.749 1.749 0 00102.5 10zm-1.75 22h-73.5V13.5h73.5zM73.5 97.523h-19a1.75 1.75 0 00-1.75 1.75v16.973A1.749 1.749 0 0054.5 118h19a1.749 1.749 0 001.75-1.75V99.273a1.75 1.75 0 00-1.75-1.75zM71.749 114.5h-15.5v-13.477h15.5zm-27.22-16.977H25.5a1.75 1.75 0 00-1.75 1.75v16.973A1.749 1.749 0 0025.5 118h19.029a1.749 1.749 0 001.75-1.75V99.273a1.75 1.75 0 00-1.75-1.75zm-1.75 16.977H27.25v-13.477h15.529zM73.5 69.766h-19a1.749 1.749 0 00-1.75 1.75v16.972a1.749 1.749 0 001.75 1.75h19a1.749 1.749 0 001.75-1.75V71.516a1.749 1.749 0 00-1.75-1.75zm-1.75 16.972h-15.5V73.266h15.5zM44.529 69.766H25.5a1.749 1.749 0 00-1.75 1.75v16.972a1.749 1.749 0 001.75 1.75h19.029a1.749 1.749 0 001.75-1.75V71.516a1.749 1.749 0 00-1.75-1.75zm-1.75 16.972H27.25V73.266h15.529zM102.5 69.766H83.471a1.749 1.749 0 00-1.75 1.75v44.73a1.749 1.749 0 001.75 1.75H102.5a1.749 1.749 0 001.75-1.75v-44.73a1.749 1.749 0 00-1.75-1.75zm-1.75 44.73H85.221v-41.23h15.529zM73.5 42.008h-19a1.749 1.749 0 00-1.75 1.75V60.73a1.749 1.749 0 001.75 1.75h19a1.749 1.749 0 001.75-1.75V43.758a1.749 1.749 0 00-1.75-1.75zM71.749 58.98h-15.5V45.508h15.5zm-27.22-16.972H25.5a1.749 1.749 0 00-1.75 1.75V60.73a1.749 1.749 0 001.75 1.75h19.029a1.749 1.749 0 001.75-1.75V43.758a1.749 1.749 0 00-1.75-1.75zm-1.75 16.972H27.25V45.508h15.529zM102.5 42.008H83.471a1.749 1.749 0 00-1.75 1.75V60.73a1.749 1.749 0 001.75 1.75H102.5a1.749 1.749 0 001.75-1.75V43.758a1.749 1.749 0 00-1.75-1.75zm-1.75 16.972H85.221V45.508h15.529z"/></g></svg><svg viewBox="0 0 512 512" id="calculator" xmlns="http://www.w3.org/2000/svg"><path d="M460.8 0H51.2C38.4 0 25.6 10.24 25.6 25.6v460.8c0 15.36 10.24 25.6 25.6 25.6h409.6c15.36 0 25.6-10.24 25.6-25.6V25.6c0-15.36-12.8-25.6-25.6-25.6zM128 460.8H76.8v-51.2H128v51.2zm0-102.4H76.8v-51.2H128v51.2zm0-102.4H76.8v-51.2H128V256zm102.4 204.8h-51.2v-51.2h51.2v51.2zm0-102.4h-51.2v-51.2h51.2v51.2zm0-102.4h-51.2v-51.2h51.2V256zm102.4 204.8h-51.2v-51.2h51.2v51.2zm0-102.4h-51.2v-51.2h51.2v51.2zm0-102.4h-51.2v-51.2h51.2V256zm102.4 204.8H384V307.2h51.2v153.6zm0-204.8H384v-51.2h51.2V256zm0-102.4H76.8V51.2h358.4v102.4z" fill="currentColor"/></svg><svg fill="none" viewBox="0 0 10 6" id="chevron" xmlns="http://www.w3.org/2000/svg"><path d="M1 1l4 4 4-4" stroke="currentColor"/></svg><svg viewBox="0 0 490.91 490" id="compare" xmlns="http://www.w3.org/2000/svg"><path d="M7.29 283.07l55.995-119.937-24.172 6.933c-5.308 1.524-10.847-1.543-12.367-6.855a9.995 9.995 0 016.852-12.367l168.07-48.23a44.168 44.168 0 01-.055-2.16c-.004-19.958 13.469-37.4 32.782-42.427 19.312-5.03 39.582 3.621 49.312 21.043l168.086-48.226c5.309-1.524 10.848 1.547 12.371 6.855 1.52 5.309-1.547 10.844-6.855 12.367l-33.172 9.52 60.074 128.672a10.004 10.004 0 016.7 9.433c.01 32.465-19.556 61.73-49.56 74.125-30.003 12.399-64.523 5.477-87.43-17.527A79.244 79.244 0 01330 197.691a10 10 0 017.29-9.62L393.12 68.487 289.238 98.293c.035.719.055 1.437.055 2.164-.031 20.348-14.035 38.008-33.84 42.672V341.21h27.602c22.054 0 40.398 17.7 40.398 39.758v5.804c18.559 3.907 31.883 20.227 32 39.196v14a10.558 10.558 0 01-10.398 10.242H145.852a10.558 10.558 0 01-10.399-10.242v-14c.117-18.969 13.442-35.29 32-39.196v-5.804c0-22.059 18.348-39.758 40.399-39.758h27.601V143.129a44 44 0 01-28.254-21.297l-113.187 32.48 60.199 128.946a10 10 0 016.703 9.43c.008 32.464-19.559 61.73-49.562 74.125-30.004 12.398-64.52 5.48-87.426-17.524A79.263 79.263 0 010 292.688a10 10 0 017.29-9.618zM410.706 77.613l-51.168 109.598h102.332zm0 179.797c29.453.172 54.645-21.125 59.371-50.2h-119.2c5.09 29.052 30.333 50.235 59.829 50.2zM155.453 425.97v4.242h180v-4.242c0-11.028-9.375-19.758-20.398-19.758H175.852c-11.024 0-20.399 8.73-20.399 19.758zm32-45v5.242h116v-5.242c0-11.028-9.375-19.758-20.398-19.758h-75.203c-11.024 0-20.399 8.73-20.399 19.758zm58-256.676a23.853 23.853 0 0022.555-16.035A23.853 23.853 0 00232.59 80.36a23.852 23.852 0 00-10.309 25.68c.254.632.442 1.284.563 1.952a23.872 23.872 0 0022.61 16.301zM29.54 282.211h102.332L80.707 172.613zm51.168 70.2c29.453.171 54.645-21.126 59.371-50.2h-119.2c5.09 29.05 30.333 50.234 59.829 50.2zm0 0" fill="currentColor"/></svg><svg viewBox="0 0 512 512" id="credit-card" xmlns="http://www.w3.org/2000/svg"><g fill="none" stroke="currentColor" stroke-width="20" stroke-linecap="round" stroke-linejoin="round" stroke-miterlimit="10"><path d="M10 180.983h438.303v68.547H10z"/><path d="M412.483 441.959H45.82c-19.783 0-35.82-16.037-35.82-35.82V159.772c0-19.783 16.037-35.82 35.82-35.82h366.664c19.783 0 35.82 16.037 35.82 35.82V406.14c-.001 19.782-16.038 35.819-35.821 35.819z"/><path d="M63.697 122.254v-16.323c0-19.822 16.005-35.891 35.748-35.891h366.806c19.743 0 35.748 16.069 35.748 35.891v246.225c0 19.822-16.005 35.891-35.748 35.891h-11.208M72.928 310.095H186.4v76.256H72.928zM259.61 386.35h125.765m-62.425-44.597h62.425"/></g></svg><svg viewBox="0 0 100 100" id="favorite" xmlns="http://www.w3.org/2000/svg"><path d="M86.21 53.09c-.06.06-.11.14-.15.21L50 89.36 13.95 53.31c-.04-.08-.1-.15-.16-.22-9.77-9.79-9.76-25.71.02-35.48 9.78-9.78 25.69-9.79 35.48-.03.39.39 1.03.39 1.42 0 9.79-9.76 25.7-9.75 35.48.03 9.78 9.77 9.79 25.69.02 35.48z" fill="currentColor"/></svg><svg viewBox="0 0 512.001 512.001" id="house-plan" xmlns="http://www.w3.org/2000/svg"><g fill="#currentColor"><path d="M375.069 141.931c-1.859-1.86-4.439-2.93-7.069-2.93s-5.21 1.07-7.07 2.93a10.058 10.058 0 00-2.93 7.07c0 2.63 1.069 5.21 2.93 7.07 1.861 1.86 4.44 2.93 7.07 2.93s5.21-1.07 7.069-2.93c1.86-1.86 2.931-4.44 2.931-7.07s-1.07-5.21-2.931-7.07zM150 282.001H70c-5.522 0-10 4.477-10 10v80c0 5.523 4.478 10 10 10h80c5.522 0 10-4.477 10-10v-80c0-5.523-4.477-10-10-10zm-10 80H80v-60h60v60zm365.827-152.239a10 10 0 00-10.898 2.167L393.031 313.827l-.005.005a.018.018 0 00-.004.005L274.238 432.621l-.005.005-.005.005-62.299 62.299A10 10 0 00219 512.001h283c5.522 0 10-4.477 10-10v-283a10 10 0 00-6.173-9.239zM492 492.001H243.143l38.161-38.161 9.546 9.546c1.953 1.953 4.512 2.929 7.071 2.929s5.118-.976 7.071-2.929c3.905-3.905 3.905-10.237 0-14.143l-9.546-9.546 25.456-25.456 9.545 9.545c1.953 1.953 4.512 2.929 7.071 2.929s5.118-.977 7.071-2.929c3.905-3.905 3.905-10.237 0-14.142l-9.546-9.546 25.456-25.456 9.546 9.546c1.953 1.953 4.512 2.929 7.071 2.929s5.118-.976 7.071-2.929c3.905-3.905 3.905-10.237 0-14.143l-9.546-9.546 25.455-25.455 9.546 9.546c1.953 1.953 4.512 2.929 7.071 2.929s5.118-.976 7.071-2.929c3.905-3.905 3.905-10.237 0-14.143l-9.546-9.546 25.456-25.456 9.545 9.545a9.968 9.968 0 007.071 2.929 9.972 9.972 0 007.071-2.929c3.905-3.905 3.905-10.237 0-14.142l-9.546-9.546L492 243.143v248.858z"/><path d="M455.827 330.473a10 10 0 00-10.898 2.167L332.64 444.93a10.002 10.002 0 007.071 17.071H452c5.522 0 10-4.477 10-10V339.712a10 10 0 00-6.173-9.239zM442 442.001h-78.146L442 363.854v78.147zm21.06-292.74a10 10 0 00-10.51-2.319l-68.281 25.005a10.011 10.011 0 00-3.633 2.319l-19.199 19.199L236.071 68.098a10.003 10.003 0 00-14.142 0L71.026 219.001H34.143L229 24.143l106.929 106.929c3.906 3.905 10.236 3.905 14.143 0 3.905-3.905 3.905-10.237 0-14.143l-114-114c-3.906-3.905-10.236-3.905-14.143 0l-219 219A9.999 9.999 0 0010 239.001h10v263c0 5.523 4.478 10 10 10h158.986c5.522 0 10-4.477 10-10s-4.478-10-10-10H40v-253h35.168c2.652 0 5.195-1.054 7.071-2.929L229 89.311l118.294 118.295L199 355.901v-89.9h70c5.522 0 10-4.477 10-10s-4.478-10-10-10h-80c-5.522 0-10 4.477-10 10v116c0 1.167.21 2.281.577 3.322l-8.959 8.959c-15.83 15.83-15.83 41.588 0 57.418 7.916 7.916 18.311 11.874 28.709 11.873 10.396 0 20.795-3.958 28.709-11.872l84.332-84.332c3.905-3.905 3.905-10.237 0-14.142-3.905-3.905-10.235-3.905-14.143 0l-63.892 63.892-29.133-29.133 182.707-182.707 29.133 29.133-69.815 69.816c-3.905 3.905-3.905 10.237 0 14.142 3.906 3.905 10.236 3.905 14.143 0l76.686-76.686a10.005 10.005 0 002.318-3.632l25.006-68.281a10 10 0 00-2.318-10.51zM220.192 421.26l-6.298 6.298c-3.891 3.891-9.063 6.034-14.566 6.034s-10.676-2.143-14.566-6.034c-3.892-3.891-6.034-9.064-6.034-14.566s2.141-10.676 6.033-14.567l6.298-6.298 29.133 29.133zm206.894-215.089l-20.938-20.938 33.038-12.099-12.1 33.037z"/><path d="M336.689 318.901c-1.859-1.86-4.439-2.93-7.069-2.93s-5.21 1.07-7.07 2.93a10.093 10.093 0 00-2.93 7.07c0 2.64 1.069 5.21 2.93 7.08 1.86 1.86 4.43 2.92 7.07 2.92 2.63 0 5.21-1.06 7.069-2.92a10.118 10.118 0 002.931-7.08c0-2.63-1.07-5.2-2.931-7.07zM229 151.001c-20.953 0-38 17.047-38 38s17.047 38 38 38 38-17.047 38-38-17.047-38-38-38zm0 56c-9.925 0-18-8.074-18-18 0-9.925 8.075-18 18-18s18 8.075 18 18-8.075 18-18 18z"/></g></svg><svg viewBox="0 0 36 36" id="location" xmlns="http://www.w3.org/2000/svg"><g fill="currentColor"><path d="M18 35a1 1 0 00.74-.33C19.25 34.11 31 20.93 31 14c0-7.17-5.83-13-13-13S5 6.83 5 14c0 6.93 11.75 20.11 12.26 20.67A1 1 0 0018 35zm0-32c6.07 0 11 4.93 11 11 0 4.77-7.35 14.26-11 18.49C14.35 28.26 7 18.77 7 14 7 7.93 11.93 3 18 3z"/><path d="M23.5 14c0-3.03-2.47-5.5-5.5-5.5s-5.5 2.47-5.5 5.5 2.47 5.5 5.5 5.5 5.5-2.47 5.5-5.5zm-9 0c0-1.93 1.57-3.5 3.5-3.5s3.5 1.57 3.5 3.5-1.57 3.5-3.5 3.5-3.5-1.57-3.5-3.5z"/></g></svg><svg viewBox="0 0 503 503.125" id="pencil" xmlns="http://www.w3.org/2000/svg"><g fill="currentColor"><path d="M16.05 503.125a15.93 15.93 0 01-11.304-4.691 15.959 15.959 0 01-4.203-15.168L30.578 362.71a16.026 16.026 0 014.203-7.445L372.895 17.152c22.867-22.87 60.093-22.87 82.964 0l30.164 30.164c22.872 22.872 22.872 60.098 0 82.965L147.914 468.395a15.896 15.896 0 01-7.445 4.203L19.914 502.633a14.784 14.784 0 01-3.863.492zm44.481-128.383l-22.527 90.41 90.41-22.527L463.41 107.648c10.39-10.39 10.39-27.328 0-37.718l-30.164-30.164c-10.41-10.41-27.351-10.391-37.719 0zm76.074 82.348h.215zm0 0"/><path d="M422.688 187.008c-4.098 0-8.196-1.559-11.31-4.692L320.864 91.82c-6.254-6.254-6.254-16.386 0-22.636 6.25-6.25 16.383-6.25 22.633 0l90.52 90.52c6.25 6.25 6.25 16.382 0 22.632-3.16 3.113-7.254 4.672-11.329 4.672zM136.605 473.09c-4.097 0-8.19-1.559-11.304-4.695l-90.52-90.516c-6.25-6.254-6.25-16.387 0-22.637s16.383-6.25 22.637 0l90.516 90.52c6.25 6.25 6.25 16.383 0 22.633a15.956 15.956 0 01-11.329 4.695zm0 0"/></g></svg><svg viewBox="0 0 512 512" id="phone" xmlns="http://www.w3.org/2000/svg"><path fill-rule="evenodd" d="M502.638 450.357c-3.4 3.389-7.5 7.723-11.847 12.307-10.848 11.513-24.4 25.825-32.894 31.629-44.69 30.538-104.478 15.926-146.769-1.695-55.789-23.245-116.528-66.091-171.065-120.635C85.475 317.415 42.633 256.657 19.388 200.9c-17.6-42.3-32.243-102.1-1.7-146.8 5.8-8.5 20.145-22.031 31.643-32.9 4.6-4.334 8.9-8.429 12.3-11.818a32.212 32.212 0 0145.441 0L189.3 91.586a32.213 32.213 0 010 45.431l-22.4 22.355a48.935 48.935 0 00-8.649 57.858 328.506 328.506 0 00136.53 136.507 48.905 48.905 0 0057.838-8.663l22.345-22.356a32.212 32.212 0 0145.441 0l82.233 82.218a32.2 32.2 0 010 45.421z" fill="currentColor"/></svg><svg viewBox="0 0 440.503 440.503" id="phone-2" xmlns="http://www.w3.org/2000/svg"><path d="M423.982 325.226l-101.76-62.293a35.412 35.412 0 00-39.68 2.347 111.136 111.136 0 00-14.08 14.507c-17.707-14.72-37.547-31.787-56.96-51.2-19.413-19.413-36.267-39.253-51.2-56.96a113.933 113.933 0 0015.147-14.933 34.775 34.775 0 002.347-37.973L115.929 16.533A33.068 33.068 0 0080.729.746a87.466 87.466 0 00-32.853 11.947A99.415 99.415 0 00.302 93.76c-4.693 52.693 45.653 141.653 125.227 221.227 76.373 75.947 161.28 125.44 213.973 125.44h6.827a99.627 99.627 0 0081.707-47.573 90.24 90.24 0 0011.733-31.787 33.495 33.495 0 00-15.787-35.841zm-5.76 31.36a70.408 70.408 0 01-9.173 24.96 78.719 78.719 0 01-64 37.333c-46.293 4.053-130.133-45.013-204.16-119.04S17.796 141.76 21.849 95.04a78.294 78.294 0 0137.333-64 66.777 66.777 0 0125.6-9.173h2.56a12.16 12.16 0 0110.453 6.4l61.227 101.547a13.44 13.44 0 010 14.507 89.179 89.179 0 01-19.627 17.28c-4.893 3.281-6.199 9.908-2.917 14.8.179.266.369.524.571.773 16.64 21.333 36.48 44.16 59.733 67.2s46.933 42.667 67.2 59.733c4.577 3.708 11.294 3.004 15.003-1.573.202-.249.392-.507.571-.773a90.903 90.903 0 0116.427-18.987 13.867 13.867 0 0115.573 0l100.907 60.16a12.37 12.37 0 015.759 13.652z" fill="currentColor"/></svg><svg viewBox="0 0 24 24" id="print" xmlns="http://www.w3.org/2000/svg"><path d="M21.5 18h-3a.5.5 0 010-1h3c.827 0 1.5-.673 1.5-1.5v-7c0-.827-.673-1.5-1.5-1.5h-19C1.673 7 1 7.673 1 8.5v7c0 .827.673 1.5 1.5 1.5h3a.5.5 0 010 1h-3A2.503 2.503 0 010 15.5v-7C0 7.122 1.121 6 2.5 6h19C22.879 6 24 7.122 24 8.5v7c0 1.378-1.121 2.5-2.5 2.5zM14.5 21h-6a.5.5 0 010-1h6a.5.5 0 010 1zM14.5 19h-6a.5.5 0 010-1h6a.5.5 0 010 1z"/><path d="M10.5 17h-2a.5.5 0 010-1h2a.5.5 0 010 1zM18.5 7a.5.5 0 01-.5-.5v-4c0-.827-.673-1.5-1.5-1.5h-9C6.673 1 6 1.673 6 2.5v4a.5.5 0 01-1 0v-4C5 1.122 6.121 0 7.5 0h9C17.879 0 19 1.122 19 2.5v4a.5.5 0 01-.5.5z"/><path d="M16.5 24h-9A2.503 2.503 0 015 21.5v-8a.5.5 0 01.5-.5h13a.5.5 0 01.5.5v8c0 1.378-1.121 2.5-2.5 2.5zM6 14v7.5c0 .827.673 1.5 1.5 1.5h9c.827 0 1.5-.673 1.5-1.5V14z"/></svg><svg fill="none" viewBox="0 0 24 24" id="skype" xmlns="http://www.w3.org/2000/svg"><path d="M24 12c0 6.628-5.372 12-12 12S0 18.628 0 12 5.372 0 12 0s12 5.372 12 12z" fill="currentColor"/><path d="M18.768 13.2a6.609 6.609 0 00.135-1.939c-.26-3.455-3.187-6.18-6.758-6.18-.394 0-.782.034-1.159.097a3.944 3.944 0 00-2.09-.596c-2.173 0-3.931 1.735-3.931 3.877 0 .716.197 1.384.54 1.96a6.979 6.979 0 00-.137 1.343c0 3.693 3.035 6.686 6.78 6.686.423 0 .839-.039 1.242-.112a3.96 3.96 0 001.859.459c2.172 0 3.933-1.735 3.933-3.877a3.899 3.899 0 00-.413-1.718zm-3.146 1.76c-.313.438-.778.784-1.378 1.03-.595.245-1.306.37-2.116.37-.975 0-1.79-.17-2.43-.502a3.157 3.157 0 01-1.115-.977c-.287-.409-.433-.816-.433-1.208 0-.244.097-.456.283-.63.184-.173.422-.259.707-.259.233 0 .432.069.597.204.157.13.292.323.399.574.12.272.253.5.39.68.133.174.325.32.567.434.247.113.579.173.986.173.561 0 1.02-.118 1.364-.351.339-.227.502-.5.502-.833a.818.818 0 00-.262-.635 1.89 1.89 0 00-.724-.394 14.41 14.41 0 00-1.244-.304 10.1 10.1 0 01-1.776-.523c-.486-.205-.878-.486-1.163-.84a1.794 1.794 0 01-.234-.374 2.215 2.215 0 01-.206-.966c0-.506.155-.96.461-1.352.302-.39.745-.694 1.315-.9.564-.205 1.232-.31 1.99-.31.607 0 1.138.07 1.581.205.448.138.823.324 1.12.551.298.23.521.476.66.73.142.258.212.515.212.763a.91.91 0 01-.278.647.937.937 0 01-.696.287c-.251 0-.448-.06-.585-.178-.127-.111-.26-.285-.405-.533a2.241 2.241 0 00-.608-.741c-.23-.172-.609-.257-1.133-.257-.485 0-.88.096-1.174.287-.283.182-.42.392-.42.64 0 .152.045.279.135.39.096.116.231.218.402.304.178.088.362.159.547.208l.117.032c.193.05.467.116.82.195a15.58 15.58 0 011.498.388 4.87 4.87 0 011.161.522c.326.208.583.476.765.795.182.321.276.718.276 1.178 0 .538-.16 1.041-.475 1.48z" fill="#fff"/></svg><svg viewBox="0 0 24 24" id="telegramm" xmlns="http://www.w3.org/2000/svg"><circle cx="12" cy="12" r="12"/><path d="M5.61 12.225l2.76 1.028 1.075 3.46c.047.234.327.281.514.14l1.543-1.262c.14-.14.374-.14.561 0l2.76 2.01c.186.141.467.048.514-.186l2.057-9.82c.047-.234-.187-.467-.42-.374L5.61 11.617c-.28.093-.28.514 0 .607zm3.695.514l5.424-3.32c.093-.047.187.093.093.14l-4.442 4.162c-.14.14-.28.327-.28.56l-.14 1.123c0 .14-.235.187-.281 0l-.562-2.057c-.14-.234-.046-.515.188-.608z" fill="#fff"/></svg><svg viewBox="0 0 512.045 512.045" id="toilet" xmlns="http://www.w3.org/2000/svg"><path d="M510.588 230.459a25.602 25.602 0 00-24.188-17.105H187.733a8.533 8.533 0 00-8.533 8.533v25.6h-17.067V128.021h8.533c14.138 0 25.6-11.461 25.6-25.6s-11.461-25.6-25.6-25.6h-8.533v-25.6h8.533a8.533 8.533 0 008.533-8.533V8.554a8.533 8.533 0 00-8.533-8.533H8.533A8.533 8.533 0 000 8.554v34.133a8.533 8.533 0 008.533 8.533h8.533v204.8a8.533 8.533 0 008.533 8.533h8.533c2.731 54.955 31.573 77.824 57.173 98.048 32.427 25.6 62.976 49.749 45.141 139.179a8.533 8.533 0 008.618 10.24h273.067a8.533 8.533 0 007.339-12.886c-24.405-40.619-24.405-73.643-24.405-123.648 52.395-17.067 90.197-60.843 93.867-112.384 13.339-4.69 20.347-19.306 15.656-32.643zM170.667 93.887c4.713 0 8.533 3.82 8.533 8.533s-3.82 8.533-8.533 8.533h-8.533V93.887h8.533zm-153.6-59.733V17.087h145.067v17.067H17.067zm17.066 17.067h110.933v196.267H34.133V51.221zm121.174 443.733c15.36-91.477-19.371-119.467-52.907-145.749-25.003-19.541-48.384-38.059-51.2-84.651h119.467c3.84 51.2 41.472 93.867 93.355 110.933 0 48.128 0 80.64-22.016 119.467h-86.699zm248.405 0H261.888c18.944-37.717 19.712-71.168 19.712-114.688a162.843 162.843 0 0034.133 3.755h34.133a162.77 162.77 0 0034.133-3.755c.001 43.52.684 76.971 19.713 114.688zm-53.845-128h-34.133c-67.243 0-122.453-45.227-127.488-102.4h289.109c-5.035 57.173-60.246 102.4-127.488 102.4zM486.4 247.487H196.267V230.42H486.4c4.713 0 8.533 3.82 8.533 8.533s-3.82 8.534-8.533 8.534z" fill="currentColor"/></svg><svg viewBox="0 0 469.329 469.329" id="triangle" xmlns="http://www.w3.org/2000/svg"><g fill="currentColor"><path d="M466.208 451.119l-448-448C15.166.067 10.562-.829 6.583.806A10.673 10.673 0 000 10.661v448a10.66 10.66 0 0010.667 10.667h448c4.313 0 8.208-2.594 9.854-6.583a10.693 10.693 0 00-2.313-11.626zm-60.875-3.125v-10.667a10.66 10.66 0 00-10.667-10.667 10.66 10.66 0 00-10.667 10.667v10.667h-42.667v-21.333a10.66 10.66 0 00-10.667-10.667 10.66 10.66 0 00-10.667 10.667v21.333h-42.667v-10.667a10.66 10.66 0 00-10.667-10.667 10.66 10.66 0 00-10.667 10.667v10.667H213.33v-21.333a10.66 10.66 0 00-10.667-10.667 10.66 10.66 0 00-10.667 10.667v21.333h-42.667v-10.667a10.66 10.66 0 00-10.667-10.667 10.66 10.66 0 00-10.667 10.667v10.667H85.333v-21.333a10.66 10.66 0 00-10.667-10.667 10.66 10.66 0 00-10.667 10.667v21.333H21.333V36.411l411.583 411.583h-27.583z"/><path d="M96 383.994h156.646c4.312 0 8.208-2.594 9.854-6.583a10.692 10.692 0 00-2.313-11.625L103.542 209.13a10.701 10.701 0 00-11.625-2.313 10.672 10.672 0 00-6.583 9.854v156.656A10.66 10.66 0 0096 383.994zm10.667-141.573l120.229 120.24H106.667v-120.24z"/></g></svg><svg fill="none" viewBox="0 0 24 24" id="viber" xmlns="http://www.w3.org/2000/svg"><path d="M24 12c0 6.628-5.372 12-12 12S0 18.628 0 12 5.372 0 12 0s12 5.372 12 12z" fill="currentColor"/><path d="M12.433 5.505c3.541.536 5.176 2.185 5.625 5.683.005.026.005.052.007.08.02.317-.052.73.381.739.375.006.394-.27.386-.547-.005-.085-.009-.169-.009-.246.04-3.295-2.887-6.347-6.291-6.46-.257.036-.789-.174-.82.39-.018.38.428.318.721.361z" fill="#fff"/><path d="M13.127 6.465c-.34-.04-.79-.197-.87.266-.083.486.418.437.74.507 2.186.48 2.949 1.26 3.309 3.387.015.09.017.195.026.296.021.246.079.473.46.417.197-.03.26-.145.28-.285.02-.141-.008-.308.01-.43.014-2.042-1.77-3.9-3.955-4.158z" fill="#fff"/><path d="M13.33 8.134c-.228.006-.453.03-.537.267-.124.356.138.442.408.482.897.142 1.368.66 1.458 1.536.011.112.054.214.118.287.07.084.171.131.296.116a.396.396 0 00.178-.062c.156-.105.173-.321.167-.53.017-.98-1.12-2.12-2.089-2.096zM17.866 15.03c-.442-.35-.915-.663-1.38-.984-.927-.638-1.776-.688-2.468.338-.387.577-.931.602-1.501.35-1.568-.697-2.78-1.772-3.49-3.336a2.02 2.02 0 01-.195-.704c-.023-.41.146-.78.62-1.095.39-.26.78-.563.75-1.129-.041-.737-1.867-3.2-2.586-3.457a1.35 1.35 0 00-.9-.002c-1.69.557-2.39 1.919-1.72 3.532.373.895.797 1.74 1.272 2.536 2.085 3.479 5.15 6.009 9.091 7.673.277.116.583.163.74.206 1.103.01 2.394-1.03 2.767-2.065.36-.994-.4-1.388-1-1.864z" fill="#fff"/></svg><svg viewBox="0 0 24 24" id="whatsapp" xmlns="http://www.w3.org/2000/svg"><circle cx="12" cy="12" r="12"/><path d="M16.756 7.237A6.257 6.257 0 0012.322 5.4c-3.468 0-6.278 2.8-6.278 6.256 0 1.094.307 2.188.834 3.106L6 18l3.337-.875a6.42 6.42 0 002.985.744c3.468 0 6.278-2.8 6.278-6.256-.044-1.62-.659-3.194-1.844-4.376zm-1.405 6.65c-.132.35-.746.7-1.053.744a2.461 2.461 0 01-.966-.043c-.22-.088-.527-.175-.878-.35-1.58-.657-2.59-2.232-2.678-2.363-.088-.088-.659-.831-.659-1.619 0-.787.395-1.137.527-1.312.132-.175.307-.175.439-.175h.307c.088 0 .22-.044.351.262.132.306.44 1.094.483 1.138a.278.278 0 010 .262.915.915 0 01-.175.263c-.088.087-.176.218-.22.262-.088.088-.175.175-.088.306.088.175.396.657.879 1.094.614.525 1.097.7 1.273.788.175.087.263.043.35-.044.089-.088.396-.438.484-.612.088-.175.22-.132.351-.088.132.044.922.438 1.054.525.175.087.263.131.307.175.044.131.044.438-.088.787z" fill="#fff"/></svg></svg>